# xmcd
#
# Track frame offsets: 
#        150
#        13123
#        27824
#        49255
#        61470
#        78712
#        95461
#        117059
#        130326
#        148164
#        161778
#        192421
#
# Disc length: 2728 seconds
#
# Revision: 4
# Processed by: cddbd v1.5.2PL0 Copyright (c) Steve Scherf et al.
# Submitted via: ExactAudioCopy v0.99pb4
#
DISCID=aa0aa60c
DTITLE=Susan Tedeschi - Hope And Desire
DYEAR=2005
DGENRE=Blues
TTITLE0=You Got The Silver
TTITLE1=Soul Of A Man
TTITLE2=Lord Protect My Child
TTITLE3=Tired Of My Tears
TTITLE4=Share Your Love With Me
TTITLE5=Evidence
TTITLE6=Sweet Forgiveness
TTITLE7=Security
TTITLE8=Loving You Is Sweeter Than Ever
TTITLE9=Magnificent Sanctuary Band
TTITLE10=Follow
TTITLE11=The Danger Zone
EXTD=
EXTT0=
EXTT1=
EXTT2=
EXTT3=
EXTT4=
EXTT5=
EXTT6=
EXTT7=
EXTT8=
EXTT9=
EXTT10=
EXTT11=
PLAYORDER=
